# xmcd
#
# Track frame offsets:
#	150
#	2080
#	10224
#	23830
#	36729
#	55086
#	69074
#	82043
#	103558
#	123402
#	140010
#	149604
#	166341
#	183039
#	202736
#	220238
#	235070
#	267161
#	290401
#
# Disc length: 4174 seconds
#
# Revision: 0
# Processed by: cddbd v1.5.1PL0 Copyright (c) Steve Scherf et al.
# Submitted via: MusicManager 7.0.6.0 
#
DISCID=09104c13
DTITLE=2-Pac and Biggie - West and East
DYEAR=2003
DGENRE=blues
TTITLE0=2-Pac and Biggie Cartoon/2-Pac Speaks On Beef With Biggie - Enhanced
TTITLE1=Brooklyn Freestyle
TTITLE2=Stopp The Gunfire
TTITLE3=Last Battle
TTITLE4=Untouchables (w/Heavy D)
TTITLE5=Deadly Combination - Remix (w/Big L)
TTITLE6=House Of Pain
TTITLE7=The Great Ones (w/Eminem and Snoop Doggy Dogg)
TTITLE8=Runnin' (w/Outlawz)
TTITLE9=Hit 'Em Up (Bad Boy Remix)(w/Black Rob and Lil' Kim)
TTITLE10=Pac And B.I.G. At War - Remix
TTITLE11=Chitty Chitty Bang Bang (w/Cypress Hill)
TTITLE12=Ha - Rare Red Alert Remix (w/Juvenile)
TTITLE13=God Bless The Dead - 2-Pac Solo
TTITLE14=Living To Die
TTITLE15=Be The Realist
TTITLE16=2-Pac Interview On Biggie Beef
TTITLE17=Hit 'Em Up - 2-Pac Solo
TTITLE18=Life Goes On - 2-Pac Solo
EXTD=
EXTT0=
EXTT1=
EXTT2=
EXTT3=
EXTT4=
EXTT5=
EXTT6=
EXTT7=
EXTT8=
EXTT9=
EXTT10=
EXTT11=
EXTT12=
EXTT13=
EXTT14=
EXTT15=
EXTT16=
EXTT17=
EXTT18=
PLAYORDER=
